<svg width="20" height="18" viewBox="0 0 20 18" fill="none" xmlns="http://www.w3.org/2000/svg">
<path fill-rule="evenodd" clip-rule="evenodd" d="M9.16664 1.65835C9.2242 1.47581 9.33846 1.31638 9.49281 1.20321C9.64717 1.09004 9.83358 1.02902 10.025 1.02902C10.2164 1.02902 10.4028 1.09004 10.5571 1.20321C10.7115 1.31638 10.8257 1.47581 10.8833 1.65835L12.4333 6.42502H17.4333C17.6315 6.41752 17.8268 6.47513 17.9892 6.58905C18.1516 6.70296 18.2723 6.86692 18.3327 7.05586C18.3932 7.24481 18.3902 7.44835 18.324 7.63539C18.2579 7.82244 18.1324 7.9827 17.9666 8.09168L13.9083 11.0333L15.4583 15.8083C15.5196 15.9902 15.5212 16.187 15.4627 16.3698C15.4043 16.5526 15.2889 16.712 15.1335 16.8246C14.9781 16.9372 14.7907 16.9972 14.5988 16.9958C14.4068 16.9943 14.2204 16.9316 14.0666 16.8167L9.99998 13.8417L5.94164 16.7917C5.7879 16.9066 5.60145 16.9693 5.40951 16.9708C5.21758 16.9722 5.03022 16.9122 4.87479 16.7996C4.71936 16.687 4.604 16.5276 4.54557 16.3448C4.48713 16.162 4.48868 15.9652 4.54998 15.7833L6.09998 11.0083L2.04164 8.06668C1.87588 7.9577 1.75035 7.79744 1.68424 7.61039C1.61813 7.42335 1.61508 7.21981 1.67554 7.03086C1.736 6.84192 1.85666 6.67796 2.01907 6.56405C2.18149 6.45013 2.37673 6.39252 2.57498 6.40002H7.57498L9.16664 1.65835Z" stroke="#90A3BF" stroke-width="1.5" stroke-linecap="round" stroke-linejoin="round"/>
</svg>
